<svg id="Layer_1" data-name="Layer 1" xmlns="http://www.w3.org/2000/svg" viewBox="0 0 1280 1399.37"><defs><style>.cls-1{fill:#ede6d5;}</style></defs><path class="cls-1" d="M1065.89,721c-42.21.69-42.23,63.48,0,64.17,42.36-1.06,42.35-63.11,0-64.17Z"/><path class="cls-1" d="M564.34,1009.16c-.85-23.69,2.44-257.1-2.6-273.64a232.27,232.27,0,0,0-66.19-130.8A15.05,15.05,0,1,0,474.28,626,202.42,202.42,0,0,1,532,740c4.41,13.74,1.48,219.38,2.27,239.07-98.56-6.32-281,28.33-353.5-59.88a15.05,15.05,0,1,0-21.28,21.29C242,1041.52,452.19,1002,564.34,1009.16Z"/><path class="cls-1" d="M337.71,881.53c56.9,1.13,100.37-40.82,99.14-99-6-184.73-225.73-224.67-321.5-222.44C112.84,656.82,154.54,875.7,337.71,881.53Zm8.58-223.7c48.37,50.73,84.54,122.26,42.07,174.9-36.09,36-116.29,16.79-175.16-42-48.87-48.81-62.55-157.27-66.06-198.89C188.79,595.32,297.33,608.93,346.29,657.83Z"/><path class="cls-1" d="M335.15,832.81c30.21.66,53.88-22.3,53.2-53.14C392.87,717,288.76,640,243.85,688.4,195.14,742.51,275.4,835.32,335.15,832.81Zm-70-123.12c36.71-27.48,114.92,48.55,87.15,87C323.56,825.54,234.79,749.62,265.13,709.69Z"/><path class="cls-1" d="M1280,772.75c.84-142.43-102.13-294.22-250.88-317.92-54.58-14.45-129-8-185.25-9.38C859.55,234.44,828.51,12.57,571.62,0,314.72,12.59,283.69,234.52,299.4,445.45H0c.43,246.1-54.38,594.69,272.33,650.06-32.36,13.26-70.48,24.57-80.42,60.75-45.32-21.6-119.86-29.82-181.58-7.36-16.36,13.33-8.57,37.59-8.72,55.52,4.08,37.79,12.76,76.1,27.44,102.38H25.31C84,1406.09,213,1400.08,354.74,1399.32l291.1,0c47.72,0,95.84-30.65,102-98.61,83.94,3.89,109.9-60.06,102.53-133.41-18.58.93-84.8-2.76-101.68,3.43v-23.43c83.44,3.55,109-60.64,101.68-133.42-18.56.93-84.82-2.74-101.68,3.41V987c16.34.59,33.56-.83,48.4-7.89,75.5,45.55,175,40.07,259.45,39.37,13.2,25.21,67.48,123.17,92,98a15,15,0,0,0-.67-21.28c-27-24.91-50.14-59.94-69.73-100.48a15.42,15.42,0,0,0-12.24-6.35c-75.51-.8-171.76,8.34-240.85-28.82,28.49-25.54,26.13-70.94,25.33-106-27.82,2-117-6.16-141.5,8-42.37-58.46-57.41-131.05-53.84-201.3,0-9.63,0-170.39,0-184.73,55.08,1.56,295.8-4.38,345.38,4.25C1139.15,495.51,1233,611,1248.33,742.16c2.93,14.47,1.11,432.23,1.55,455.34,6.7,76.2-44.17,150.85-119.82,167.47-27,6.85-63.58,3.47-92.25,4.27-19.32.71-38.37-.94-55.16-10.62-51-26.46-58.22-102.78-13.16-138.27,53.83-45.56,138.7-6.26,138.41,64.78.24,19.56,30.24,19.47,30.1-.31-.16-96.48-114.28-149.24-187.7-87.65C888.93,1246,898.64,1348.54,968.2,1385c21.1,12.07,45.93,15.34,69.41,14.31,32.1-.95,67.83,2.82,99.52-5.11,68.55-15.39,125.4-73.67,138.9-142.17C1284.46,1217.48,1278.17,818.18,1280,772.75ZM30.1,775.49V475.55c224.2.49,542.42-49.8,591.58,250.19,6.13,19.88,2.31,315.51,3.28,343.93C380.73,1072.47,45.81,1115.47,30.1,775.49Zm188.68,405c-1.64-29.55,21.95-40.35,47.75-50.15,20.09-7.75,41.37-16.67,58.25-29.64,1.93-1.41,3.64-1.15,5.65,0a171.1,171.1,0,0,0,35.93,20.47c19.76,9.37,43.2,14.6,59,28.79,5.11,5,11,13,11,30.51,0,110.37-30.71,163.48-108.93,188-74.55-23.33-105.88-72.78-108.66-172.91h0Zm404.45,29.13c-12.91,130.32-90.88,159.6-228.81,159.24,59.6-43.39,71.15-113,72-180,42.5-26.44,103.83-26.28,158-16.42C625.51,1185.37,623.89,1198.44,623.23,1209.61ZM68.6,1312.42c-25.38-28.84-38.47-92.08-38.33-139.92,67.41-10.34,110.66-10,158.15,16.12.8,67.06,12.3,136.74,71.91,180.18C171.09,1366.66,106.8,1359.61,68.6,1312.42ZM820.28,883.71c2.37,25.68-6.45,52.67-30.32,65.5-16.86,11.53-52.08,6.82-71.36,7.71v110.82c43.06-31,52.2-22.83,101.68-23.73,3.31,69.45-44.95,76.8-101.68,73.21V1221c43.09-30.72,52.34-22.72,101.68-23.59,3.33,69.6-45.09,76.77-101.87,73.2,6.58,117.14-80.14,97.94-153.93,98.62a146.69,146.69,0,0,0,41.08-32.32c42.33,4.47,83.35-18.55,82.14-60.77.36-44.33-.18-134.1-1.49-178V943.31A59.4,59.4,0,0,1,713,893.57C733,876.43,796.37,886.13,820.28,883.71ZM684,878.52a89.34,89.34,0,0,0-27.89,64.79c-.13,53.23-.19,184.61,1.57,236.14l-.07,96.69c0,19.66-15.28,28.31-30.67,30.25,9.75-7.93,46.35-127.74,18.25-157.11a26.65,26.65,0,0,0-12.76-6c-58.2-10.67-120.45-11.46-169.22,13-4.57-16.14-15.7-29.12-29.78-38h-.11c-12-7.65-25.8-12.73-40.07-18.46H655.06V828.07A331.65,331.65,0,0,0,684,878.52ZM640,445.45l-15.06,0V633.64c-52.3-111.9-167-188.57-295.42-188.19-11.89-191.58,2.27-403,242.13-415.35C811.5,42.45,825.65,254,813.75,445.45Z"/></svg>