<svg id="Layer_1" data-name="Layer 1" xmlns="http://www.w3.org/2000/svg" viewBox="0 0 1280 350.87"><defs><style>.cls-1{fill:#ede6d5;}</style></defs><path class="cls-1" d="M424.44,126.07V237.63H413.27V126.07Z"/><path class="cls-1" d="M533.93,237.63H522.75L461,143.79v93.84H449.82V126.07H461l61.76,93.69V126.07h11.18Z"/><path class="cls-1" d="M624.1,132.78a46.76,46.76,0,0,1,20.26,19.31q7,12.6,7,30,0,17.24-7,29.77A46.41,46.41,0,0,1,624.1,231q-13.26,6.62-31.76,6.62h-33V126.07h33Q610.85,126.07,624.1,132.78Zm3.75,83.39q12.21-12.21,12.21-34.08,0-22-12.21-34.39t-35.51-12.37H570.47v93h21.87Q615.64,228.37,627.85,216.17Z"/><path class="cls-1" d="M683.15,126.07V237.63H672V126.07Z"/><path class="cls-1" d="M710.59,152.33a52.22,52.22,0,0,1,19.63-20.27A54.12,54.12,0,0,1,758,124.8q18.68,0,32,8.85t19.39,25H796.3a38.36,38.36,0,0,0-14.6-17.71q-9.83-6.39-23.71-6.39a42.92,42.92,0,0,0-22.1,5.75,39.86,39.86,0,0,0-15.4,16.52q-5.6,10.77-5.59,25t5.59,24.9a40,40,0,0,0,15.4,16.44,42.92,42.92,0,0,0,22.1,5.74q13.89,0,23.71-6.3a38,38,0,0,0,14.6-17.48h13.08a49.76,49.76,0,0,1-19.47,24.74q-13.39,8.77-31.92,8.78a54.12,54.12,0,0,1-27.77-7.26,52.34,52.34,0,0,1-19.63-20.19,59.54,59.54,0,0,1-7.18-29.37A60,60,0,0,1,710.59,152.33Z"/><path class="cls-1" d="M842.26,126.07V196.3q0,16.59,7.9,24.57t21.63,8q13.73,0,21.46-7.9T901,196.3V126.07h11.17v70.07q0,21.23-11.25,31.92t-29.28,10.69q-18,0-29.29-10.69t-11.25-31.92V126.07Z"/><path class="cls-1" d="M996.43,237.63,968.82,191H948.23v46.6H937.06V126.07h33.52q18.66,0,28.32,8.94t9.66,23.46q0,12.14-6.94,20.67t-20.51,11.09l28.73,47.4Zm-48.2-55.7h22.51q13.08,0,19.71-6.38t6.62-17.08q0-11-6.38-17t-20.11-6H948.23Z"/><path class="cls-1" d="M1095.38,211.14h-50.75l-9.74,26.49h-11.81l40.7-110.12h12.61l40.54,110.12h-11.82Zm-3.35-9.26-22-60.32-22,60.32Z"/><path class="cls-1" d="M1200.07,126.07v9.26h-31v102.3h-11.17V135.33h-31.12v-9.26Z"/><path class="cls-1" d="M1229,135.17v41.65h42.29v9.26H1229v42.29H1276v9.26h-58.25V125.91H1276v9.26Z"/><path class="cls-1" d="M936.16,291.77a28,28,0,1,1-27.95,28.1A28,28,0,0,1,936.16,291.77Zm0,50.6a22.58,22.58,0,1,0-22.5-22.5A22.63,22.63,0,0,0,936.16,342.37Z"/><path class="cls-1" d="M985.59,315.12a16.63,16.63,0,0,1,8.33,2V294a1.53,1.53,0,0,1,1.48-1.47h2.42A1.54,1.54,0,0,1,999.3,294v51.54a1.54,1.54,0,0,1-1.48,1.48h-1.64a1.4,1.4,0,0,1-1.32-1.24l-.47-2.11a13.94,13.94,0,0,1-9.58,4.13c-7.94,0-14.16-7.47-14.16-16.43S976.25,315.12,985.59,315.12Zm-.23,27.8c5.6,0,8.49-5.14,8.49-5.14V322.21a16.74,16.74,0,0,0-7.56-1.87c-6.77,0-10.19,4.9-10.19,11.13C976.1,337.54,979.68,342.92,985.36,342.92Z"/><path class="cls-1" d="M1023.43,315.12c8.17,0,14.09,6.07,14.09,14.25a18.55,18.55,0,0,1-.16,2.1,1.43,1.43,0,0,1-1.4,1.32h-22.42c.31,5.22,4.9,10.13,10.43,10.13a14.82,14.82,0,0,0,7.71-2.34c1.09-.62,1.55-1,2.18-.16.47.63.85,1.17,1.32,1.79s.86,1.17-.31,2a19.34,19.34,0,0,1-11.44,3.58c-9.42,0-15.26-7.4-15.26-16.35S1014,315.12,1023.43,315.12Zm8.71,13.31a9,9,0,0,0-8.71-8.56,9.68,9.68,0,0,0-9.81,8.56Z"/><path class="cls-1" d="M1065.3,320.57h-4a1.48,1.48,0,0,1-1.48-1.48v-1.71a1.43,1.43,0,0,1,1.48-1.48h4v-8.64a1.53,1.53,0,0,1,1.48-1.48l2.49-.16a1.46,1.46,0,0,1,1.4,1.48v8.8h9a1.43,1.43,0,0,1,1.47,1.48v1.71a1.47,1.47,0,0,1-1.47,1.48h-9v18.22c0,3.11.78,3.74,2.57,3.74a14.77,14.77,0,0,0,5.69-1.72c1.16-.62,1.48-.15,1.87.47l1.16,2c.55.93.31,1.4-.54,1.94a20.37,20.37,0,0,1-9,2.65c-6.23,0-7.17-3.74-7.17-8.56Z"/><path class="cls-1" d="M1103.14,315.12c8.64,0,15.49,7.48,15.49,16.27,0,9-6.85,16.43-15.49,16.43s-15.5-7.47-15.5-16.43C1087.64,322.6,1094.5,315.12,1103.14,315.12Zm0,27.64c5.68,0,10.12-5.06,10.12-11.37,0-6.15-4.44-11.13-10.12-11.13s-10.12,5-10.12,11.13C1093,337.7,1097.45,342.76,1103.14,342.76Z"/><path class="cls-1" d="M1147.12,294a1.53,1.53,0,0,1,1.48-1.47h3.11a1.53,1.53,0,0,1,1.48,1.47v51.54a1.53,1.53,0,0,1-1.48,1.48h-3.11a1.53,1.53,0,0,1-1.48-1.48Z"/><path class="cls-1" d="M1165.65,317.38a1.53,1.53,0,0,1,1.47-1.48h1.48a1.14,1.14,0,0,1,1.25.93l.7,2.42a17.37,17.37,0,0,1,10.9-4.13c9,0,12.07,5.92,12.07,14v16.42A1.53,1.53,0,0,1,1192,347h-2.49a1.53,1.53,0,0,1-1.48-1.48V329.14c0-5.92-2.65-8.8-7-8.8-5.84,0-10,4.43-10,4.43v20.79a1.53,1.53,0,0,1-1.48,1.48h-2.42a1.53,1.53,0,0,1-1.47-1.48Z"/><path class="cls-1" d="M1216.87,315.12a16.63,16.63,0,0,1,8.33,2V294a1.53,1.53,0,0,1,1.48-1.47h2.41a1.53,1.53,0,0,1,1.48,1.47v51.54a1.53,1.53,0,0,1-1.48,1.48h-1.63a1.42,1.42,0,0,1-1.33-1.24l-.46-2.11a13.94,13.94,0,0,1-9.58,4.13c-7.94,0-14.17-7.47-14.17-16.43S1207.53,315.12,1216.87,315.12Zm-.23,27.8c5.6,0,8.48-5.14,8.48-5.14V322.21a16.72,16.72,0,0,0-7.55-1.87c-6.77,0-10.2,4.9-10.2,11.13C1207.37,337.54,1211,342.92,1216.64,342.92Z"/><path class="cls-1" d="M1240.61,297.84a3.7,3.7,0,1,1,3.66,3.66A3.67,3.67,0,0,1,1240.61,297.84Zm1.09,19.54a1.53,1.53,0,0,1,1.48-1.48h2.41a1.53,1.53,0,0,1,1.48,1.48v28.18a1.53,1.53,0,0,1-1.48,1.48h-2.41a1.53,1.53,0,0,1-1.48-1.48Z"/><path class="cls-1" d="M1268.32,327.27a25.64,25.64,0,0,1,6.62,1c.08-5.76-.62-8.41-5.06-8.41a27.51,27.51,0,0,0-9.34,1.71c-.78.32-1.25-.07-1.48-.78l-.62-1.94c-.32-.93.15-1.4.85-1.71a29.06,29.06,0,0,1,10.82-2c7.94,0,9.89,4.05,9.89,13.16v17.28a1.53,1.53,0,0,1-1.48,1.48H1277c-.85,0-1.09-.47-1.32-1.17l-.62-2.1a13.5,13.5,0,0,1-9.66,4.05c-5.45,0-9.57-4-9.57-10.2C1255.87,331.7,1260.3,327.27,1268.32,327.27Zm-2,15.88a11.05,11.05,0,0,0,8.56-4.36v-6.15a13.83,13.83,0,0,0-6.54-1.25c-4.36,0-7.47,2.18-7.47,6.23A5.25,5.25,0,0,0,1266.3,343.15Z"/><path class="cls-1" d="M874.86,332.2H710.35a4.57,4.57,0,0,1,0-9.14H874.86a4.57,4.57,0,0,1,0,9.14Z"/><path class="cls-1" d="M268.11,180.81c-10.59.17-10.59,15.92,0,16.09,10.62-.27,10.62-15.83,0-16.09Z"/><path class="cls-1" d="M142.33,253.08c-.21-6,.61-64.48-.65-68.63a58.21,58.21,0,0,0-16.6-32.8,3.77,3.77,0,1,0-5.33,5.34,50.79,50.79,0,0,1,14.46,28.58c1.11,3.45.37,55,.57,60-24.72-1.59-70.46,7.1-88.65-15a3.78,3.78,0,0,0-5.34,5.34C61.49,261.19,114.2,251.28,142.33,253.08Z"/><path class="cls-1" d="M85.49,221.07c14.27.28,25.18-10.24,24.87-24.84-1.52-46.33-56.61-56.34-80.63-55.78C29.1,164.72,39.56,219.61,85.49,221.07ZM87.65,165c12.13,12.72,21.2,30.66,10.55,43.86-9,9-29.17,4.21-43.93-10.54C42,186.05,38.59,158.86,37.7,148.42,48.15,149.29,75.37,152.71,87.65,165Z"/><path class="cls-1" d="M84.85,208.85a12.79,12.79,0,0,0,13.34-13.33c1.14-15.72-25-35-36.23-22.89C49.74,186.21,69.87,209.48,84.85,208.85ZM67.29,178c9.21-6.89,28.82,12.18,21.86,21.82C82,207,59.69,188,67.29,178Z"/><path class="cls-1" d="M321.8,193.79c.21-35.72-25.62-73.78-62.92-79.73-13.69-3.62-32.34-2-46.46-2.35C216.36,58.79,208.58,3.15,144.16,0,79.73,3.16,72,58.81,75.89,111.71H.81c.1,61.71-13.64,149.13,68.29,163C61,278.05,51.42,280.89,48.93,290c-11.36-5.42-30.06-7.48-45.53-1.85-4.11,3.34-2.15,9.43-2.19,13.92,1,9.48,3.2,19.09,6.88,25.68H7.15c14.72,24.9,47.07,23.39,82.62,23.2h73c12,0,24-7.68,25.58-24.73,21.05,1,27.56-15.06,25.71-33.45-4.66.23-21.26-.7-25.5.86v-5.88c20.93.89,27.34-15.21,25.5-33.46-4.65.24-21.27-.68-25.5.86v-7.6c4.1.15,8.42-.2,12.14-2,18.94,11.43,43.88,10.05,65.07,9.88,3.3,6.32,16.92,30.89,23.06,24.57a3.76,3.76,0,0,0-.16-5.33c-6.77-6.25-12.58-15-17.49-25.2a3.86,3.86,0,0,0-3.07-1.59c-18.94-.2-43.08,2.09-60.4-7.23,7.14-6.4,6.55-17.79,6.35-26.58-7,.51-29.35-1.54-35.48,2-10.63-14.66-14.4-32.86-13.51-50.48,0-2.41,0-42.73,0-46.32,13.82.39,74.18-1.1,86.62,1.06,34.79,3.94,58.32,32.89,62.17,65.8.73,3.63.28,108.39.39,114.19,1.68,19.11-11.08,37.83-30.05,42-6.76,1.72-15.94.87-23.13,1.07-4.85.18-9.63-.23-13.84-2.66-12.78-6.63-14.6-25.77-3.3-34.67,13.5-11.43,34.78-1.57,34.71,16.24.06,4.91,7.59,4.88,7.55-.08,0-24.19-28.66-37.42-47.07-22-15.39,12.25-13,38,4.49,47.12,5.29,3,11.52,3.84,17.4,3.58,8.06-.24,17,.71,25-1.28,17.19-3.86,31.45-18.47,34.84-35.65C322.92,305.32,321.34,205.18,321.8,193.79Zm-313.45.68V119.26c56.23.12,136-12.49,148.36,62.74,1.54,5,.58,79.12.82,86.25C96.29,269,12.29,279.74,8.35,194.47ZM55.67,296c-.41-7.41,5.51-10.12,12-12.58,5-1.94,10.38-4.18,14.61-7.43a1.16,1.16,0,0,1,1.42,0,43.25,43.25,0,0,0,9,5.14c5,2.35,10.83,3.66,14.8,7.22,1.28,1.25,2.75,3.26,2.75,7.65,0,27.68-7.7,41-27.32,47.13-18.69-5.85-26.55-18.25-27.25-43.36h0Zm101.43,7.3c-3.24,32.68-22.79,40-57.38,39.94,14.94-10.88,17.84-28.34,18-45.15,10.66-6.63,26-6.59,39.62-4.12A64,64,0,0,1,157.1,303.34ZM18,329.13C11.64,321.89,8.36,306,8.4,294c16.9-2.59,27.75-2.52,39.66,4,.2,16.82,3.08,34.29,18,45.19C43.71,342.73,27.59,341,18,329.13Zm188.5-107.52c.6,6.45-1.61,13.21-7.6,16.43-4.23,2.89-13.06,1.71-17.9,1.93v27.8c10.8-7.77,13.09-5.73,25.5-6,.83,17.42-11.27,19.27-25.5,18.36v26c10.81-7.7,13.13-5.7,25.5-5.91.84,17.45-11.3,19.25-25.54,18.35,1.65,29.38-20.1,24.57-38.61,24.73a36.6,36.6,0,0,0,10.31-8.1c10.61,1.12,20.9-4.65,20.6-15.24.08-11.12-.05-33.63-.38-44.65V236.56a14.88,14.88,0,0,1,6.72-12.47C184.62,219.79,200.52,222.22,206.51,221.61Zm-34.17-1.3a22.41,22.41,0,0,0-7,16.25c0,13.35-.05,46.3.39,59.22V320c0,4.93-3.84,7.1-7.7,7.58,2.45-2,11.63-32,4.58-39.4a6.73,6.73,0,0,0-3.2-1.51C144.81,284,129.2,283.83,117,290a16.93,16.93,0,0,0-7.47-9.54h0a60.61,60.61,0,0,0-10-4.63h65.66V207.66A82.66,82.66,0,0,0,172.34,220.31Zm-11-108.6h-3.77V158.9a82,82,0,0,0-74.09-47.19c-3-48,.57-101.07,60.72-104.16,60.15,3.1,63.7,56.14,60.72,104.16Z"/></svg>